<svg version="1.1" id="Layer_1" xmlns="http://www.w3.org/2000/svg" xmlns:xlink="http://www.w3.org/1999/xlink" x="0px" y="0px"
	 viewBox="0 0 365 620" style="enable-background:new 0 0 365 620;" xml:space="preserve">
<style type="text/css">
	.st0{fill:#F2F2F2;}
</style>
<path id="mask" class="st0" d="M129.5,0v557.5c0,21.4,0.9,47.4,33.1,47.4h8V620H0v-15.2h10.7c33.9,0,35.7-25.9,35.7-47.4V116.1
	c0-19.7-9.8-24.1-22.3-24.1C17,92,1.8,93.8,1.8,93.8V78.6c43.8-8,90.2-42,118.8-78.6H129.5z M323.4,0v557.5
	c0,21.4,0.9,47.4,33.1,47.4h8V620H193.8v-15.2h10.7c33.9,0,35.7-25.9,35.7-47.4V116.1c0-19.7-9.8-24.1-22.3-24.1
	c-7.1,0-22.3,1.8-22.3,1.8V78.6c43.8-8,90.2-42,118.8-78.6H323.4z"/>
</svg>
