<svg version="1.1" id="Layer_1" xmlns="http://www.w3.org/2000/svg" xmlns:xlink="http://www.w3.org/1999/xlink" x="0px" y="0px" viewBox="0 0 450 90">
<path d="M418,2.5V77c0,2.9,0.1,6.3,4.4,6.3h1.1v2h-22.8v-2h1.4c4.5,0,4.8-3.5,4.8-6.3V18c0-2.6-1.3-3.2-3-3.2c-1,0-3,0.2-3,0.2v-2
	c5.8-1.1,12.1-5.6,15.9-10.5H418z M443.9,2.5V77c0,2.9,0.1,6.3,4.4,6.3h1.1v2h-22.8v-2h1.4c4.5,0,4.8-3.5,4.8-6.3V18
	c0-2.6-1.3-3.2-3-3.2c-1,0-3,0.2-3,0.2v-2c5.8-1.1,12.1-5.6,15.9-10.5H443.9z"/>
<path d="M17.5,7v36.5c0,0,3.1,0.1,4.1,0.1c9.7,0,11.7-11.1,11.7-19c0-15.9-7.4-17.7-12.1-17.7h-3.7V7z M50.6,83.2
	c3.3-0.5,3.5-3.8,3.5-6.3V43.7c-3.6,0-7,0.8-10.7,3.6l-0.5-0.6c2.5-3.6,7-5.6,11.2-6.6V12.3c0-2.4,0-5.8-4.7-5.8h-1.3v-2h38.7v18.1
	h-2.1c-0.8-8.4-3.5-15.5-12.8-15.5h-6.7v32.7c3.9,0.7,7.2,1.8,12.3,1.8c3.2,0,4.8-0.6,6.4-1.8h0.5c-3.2,5.4-6.7,7-11.1,7
	c-3,0-5.5-0.6-8.1-1.4v33.9c0,3.1,1.9,3.3,2.9,3.3h5.4c5.4,0,10.9-1.3,12.7-17.8h2.1v20.4H51.7H38.8c-2.4,0-3.5-1.9-3.7-2.6
	l-8.8-32.9c-0.6-2.1-2.1-3.2-3.9-3.2l-4.9-0.1V77c0,2.6,0.2,6.3,4.5,6.3h1.4v2H0.5v-2h1.1c4.7,0,4.8-3.7,4.8-6.3V12.3
	c0-2.4,0-5.8-4.8-5.8H0.5v-2h23.8c11.2,0,20.1,7,20.1,19.7c0,7.8-4.2,15-9.6,18.6l10,33.8C46.2,80.7,47.7,82.8,50.6,83.2z
	 M107.7,86.7c-4.9,0-11.1-1.4-15.5-1.9V64.9h2.1c0.6,7.9,4.9,18.9,13.4,18.9c7.5,0,10.3-6,10.3-11.5c0-20.2-27.2-27.9-27.2-49.2
	c0-11,8.1-19.9,19.3-19.9c4.7,0,9.9,1,13,1.7V21h-2.3c-0.6-6-3.3-14.9-11.6-14.9c-6.4,0-10,5.7-10,11.7c0,17.5,26.9,26,26.9,47.2
	C126.1,75.4,120,86.7,107.7,86.7z M148.7,6.4h-0.6c-4.5,0-4.7,3.5-4.7,5.8v64.7c0,2.9,0.1,6.3,4.4,6.3h1.1v2h-22.8v-2h1.4
	c4.5,0,4.8-3.5,4.8-6.3V12.3c0-2.4,0-5.8-5-5.8h-0.8v-2h22.2V6.4z M172.6,7h-3.7v71.5c0,2.9,0,4.2,2.5,4.2h3.2
	c13.3,0,15.4-21.8,15.4-37.4C190,21.1,185.6,7,172.6,7z M172.6,4.5C192.2,4.5,202,22,202,43.2c0,18.5-8.6,42.1-28.1,42.1h-21.7v-2
	h0.8c3.6,0,4.8-1.3,4.8-4.7v-67c0-2.4,0-5.1-4.8-5.1h-0.8v-2H172.6z M219.6,79.4c0,3.1,1.9,3.3,2.9,3.3h5.4
	c5.4,0,10.9-1.3,12.7-17.8h2.1v20.4h-40.1v-2h1.6c4.2,0,4.4-3.7,4.4-6.3V12.3c0-2.4,0-5.8-4.7-5.8h-1.3v-2h38.7v18.1h-2.1
	c-0.8-8.4-3.5-15.5-12.8-15.5h-6.7L219.6,79.4L219.6,79.4z M255.7,23.9v52.8c0,3.3,1,6.7,5.6,6.7h1v2h-16.9v-2h1.1
	c4.8,0,5.4-3.3,5.4-6.7v-60c0-4.8-0.7-10.3-5.5-10.3h-1.3V4.5h20.7v1.9h-1.7c-2.1,0-3,1.3-2.3,2.7L286,62.5V15.7
	c0-3.3-0.2-9.3-5-9.3h-1.8V4.5h17.4v1.9h-1.7c-4.8,0-5,6-5,9.3v54.8l4.4,8.2c-1.8,0.7-7.4,5.5-8,8.7
	C273.1,60.2,255.7,23.9,255.7,23.9z M334.1,69h3c-0.7,5.4-4.8,17.7-15.5,17.7c-14.7,0-24.9-20.7-24.9-42.6
	c0-21.8,11.7-40.8,25.4-40.8c3.1,0,5.3,1.8,7.9,1.8c1.2,0,2.5,0,3-1.7h2v19.3h-2c-1.7-9.1-4.8-16.8-10.7-16.8
	c-7.9,0-13.8,10.6-13.8,39.4c0,33.5,5.6,38.7,13.3,38.7C328.6,83.9,332.3,76.3,334.1,69z M362.3,7.2h-6.7v31.6
	c2.1-0.5,4.4-0.7,6.7-0.7c3.9,0,8,0.8,11.6,1.9c-2.9,3.6-3.8,9-3.8,9c-3.6-2.6-8-4.4-12.8-4.4h-1.7v34.9c0,3.1,1.9,3.3,2.9,3.3h5.4
	c5.4,0,10.9-1.3,12.7-17.8h2.1v20.4h-40.2v-2h1.6c4.2,0,4.4-3.7,4.4-6.3V47.3c-2.9,1.3-5.4,3.1-7.6,5.4l-1-0.6
	c2.3-3.6,5.3-6.6,8.6-8.7v-31c0-2.4,0-5.8-4.7-5.8h-1.3V4.5h38.7v18.1h-2.1C374.2,14.3,371.6,7.2,362.3,7.2z"/>
</svg>
